<svg xmlns="http://www.w3.org/2000/svg" viewBox="0 0 200 200" width="200" height="200">
  <!-- Heart Shape -->
  <path d="M100 160s-40-24-60-60c-10-20-10-40 0-50 10-10 30-10 40 10 10-20 30-20 40-10 10 10 10 30 0 50-20 36-60 60-60 60z" 
        fill="#FF6F61" />

  <!-- Handshake Symbol -->
  <path d="M70 100c0-10 20-10 20-20s-10-20-10-20h40s-10 10-10 20 20 10 20 20h-20v10h-20v-10h-20z" 
        fill="#FFD54F" />

  <!-- Text -->
  <text x="50%" y="190" font-size="20" font-family="Arial, sans-serif" text-anchor="middle" fill="#007BFF">
    Bantulink
  </text>
</svg>
